<svg id="Layer_1" enable-background="new 0 0 512 512" height="512" viewBox="0 0 512 512" width="512" xmlns="http://www.w3.org/2000/svg"><g><path d="m446.502 63.713h-14.462c-61.818 0-121.59-21.496-169.165-60.61-4.937-4.059-12.01-4.147-17.035-.197-50.027 39.326-111.903 60.807-175.75 60.807h-4.591c-5.122 0-9.273 4.152-9.273 9.273v220.851c-.001 105.573 85.582 218.163 191.155 218.163h17.239c105.573 0 191.156-112.59 191.156-218.162v-220.852c-.001-5.121-4.153-9.273-9.274-9.273z" fill="#00a763"/><path d="m446.502 63.713h-14.462c-61.818 0-121.59-21.496-169.165-60.61-2.028-1.667-4.417-2.653-6.875-2.976v511.873h8.619c105.573 0 191.156-112.59 191.156-218.162v-220.852c0-5.121-4.152-9.273-9.273-9.273z" fill="#008475"/><g><path d="m331.092 172.211-65.381-65.381c-5.428-5.429-14.231-5.429-19.659 0l-65.381 65.381c-43.293 43.293-43.293 113.737 0 157.03l65.381 65.381c2.714 2.715 6.272 4.072 9.829 4.072s7.115-1.357 9.829-4.072l65.381-65.381c43.295-43.293 43.295-113.737.001-157.03z" fill="#bee75e"/><path d="m265.711 106.83c-2.714-2.715-6.272-4.072-9.829-4.072v295.936c3.558 0 7.115-1.357 9.829-4.072l65.381-65.381c43.294-43.293 43.294-113.737 0-157.03z" fill="#00cb75"/><path d="m297.886 222.647c-5.857-5.858-15.355-5.858-21.213 0l-5.791 5.791v-45.822c0-8.284-6.716-15-15-15s-15 6.716-15 15v45.819l-14.351-14.35c-5.857-5.858-15.355-5.858-21.213 0s-5.858 15.355 0 21.213l35.563 35.563v153.428c0 8.284 6.716 15 15 15s15-6.716 15-15v-153.425l27.004-27.004c5.859-5.858 5.859-15.356.001-21.213z" fill="#9bda05"/><path d="m276.672 222.647-5.791 5.791v-45.822c0-8.284-6.716-15-15-15v271.672c8.284 0 15-6.716 15-15v-153.424l27.004-27.004c5.858-5.858 5.858-15.355 0-21.213-5.857-5.859-15.354-5.859-21.213 0z" fill="#00a763"/></g></g></svg>