<?xml version="1.0"?>
<svg xmlns="http://www.w3.org/2000/svg" xmlns:xlink="http://www.w3.org/1999/xlink" xmlns:svgjs="http://svgjs.com/svgjs" version="1.1" width="512" height="512" x="0" y="0" viewBox="0 0 512 512" style="enable-background:new 0 0 512 512" xml:space="preserve" class=""><g><g xmlns="http://www.w3.org/2000/svg" id="XMLID_1252_"><g id="XMLID_890_"><path id="XMLID_893_" d="m324 248c54.037 0 98-43.962 98-98v-49c0-23.159-18.841-42-42-42s-42 18.841-42 42v49c0 7.72-6.28 14-14 14h-6v-102c0-34.187-27.813-62-62-62s-62 27.813-62 62v72.5h-6c-7.72 0-14-6.28-14-14v-38.5c0-23.159-18.841-42-42-42s-42 18.841-42 42v38.5c0 54.038 43.963 98 98 98h6v57.5h-75.794c-5.522 0-10 4.477-10 10v52c0 5.523 4.478 10 10 10h5.297l27.859 155.761c.853 4.768 5 8.239 9.844 8.239h189.334c4.844 0 8.991-3.471 9.844-8.239l27.859-155.761h5.297c5.522 0 10-4.477 10-10v-52c0-5.523-4.478-10-10-10h-75.54v-28zm0-64c18.748 0 34-15.252 34-34v-49c0-12.131 9.869-22 22-22s22 9.869 22 22v49c0 43.009-34.99 78-78 78h-6v-44zm-136 14.5c-43.01 0-78-34.991-78-78v-38.5c0-12.131 9.869-22 22-22s22 9.869 22 22v38.5c0 18.748 15.252 34 34 34h6v44zm154.17 293.5h-172.594l-9.103-50.891 42.711-42.711 45.617 45.618c3.906 3.905 10.236 3.905 14.143 0l45.617-45.618 42.711 42.711zm41.37-164h-82.54c-5.522 0-10 4.477-10 10s4.478 10 10 10h66.926l-12.362 69.116-39.931-39.931c-3.906-3.905-10.236-3.905-14.143 0l-45.617 45.618-45.617-45.618c-3.906-3.905-10.236-3.905-14.143 0l-39.931 39.931-12.362-69.116h67.182c5.522 0 10-4.477 10-10s-4.478-10-10-10h-82.796v-32h255.334zm-169.54-52v-214c0-23.159 18.841-42 42-42s42 18.841 42 42v214z" fill="#70acf3" data-original="#000000" style="" class=""/><path id="XMLID_1051_" d="m244 177c-5.522 0-10 4.477-10 10v17c0 5.523 4.478 10 10 10s10-4.477 10-10v-17c0-5.523-4.478-10-10-10z" fill="#70acf3" data-original="#000000" style="" class=""/><path id="XMLID_1052_" d="m268 99.25c-5.522 0-10 4.477-10 10v17c0 5.523 4.478 10 10 10s10-4.477 10-10v-17c0-5.523-4.478-10-10-10z" fill="#70acf3" data-original="#000000" style="" class=""/><path id="XMLID_1054_" d="m256 328c-2.63 0-5.21 1.07-7.07 2.93s-2.93 4.44-2.93 7.07 1.069 5.21 2.93 7.07 4.44 2.93 7.07 2.93 5.21-1.07 7.069-2.93c1.86-1.86 2.931-4.44 2.931-7.07s-1.07-5.21-2.931-7.07c-1.859-1.86-4.439-2.93-7.069-2.93z" fill="#70acf3" data-original="#000000" style="" class=""/></g></g></g></svg>
