<svg id="Capa_1" enable-background="new 0 0 512 512" height="512" viewBox="0 0 512 512" width="512" xmlns="http://www.w3.org/2000/svg"><g><path d="m151 156.196v90.257c0 71.821 41.001 137.373 105 168.867 63.999-31.494 105-97.046 105-168.867v-90.257c-38.95-.483-73.608-11.748-105.527-34.38-33.238 24.434-62.784 34.014-104.473 34.38zm187.749 54.998-69.507 162.173-24.053-72.173h-71.938l69.507-162.173 24.053 72.173z"/><path d="m451 15-25.605 25.605c-16.274 16.274-38.804 25.605-61.816 25.605-42.07 0-63.047-21.255-89.604-48.164l-17.975-18.046-10.605 10.605c-55.605 55.605-70.298 55.605-96.973 55.605-23.013 0-45.542-9.331-61.816-25.605l-25.606-25.605v231.453c0 119.956 76.465 226.04 190.254 263.965l4.746 1.582 4.746-1.582c113.789-37.925 190.254-144.009 190.254-263.965zm-60 231.453c0 85.898-50.581 164.063-128.862 199.131l-6.138 2.739-6.138-2.739c-78.281-35.068-128.862-113.232-128.862-199.131v-121.868c13.799.95 18.797 1.626 27.422 1.626 40.269 0 64.893-8.818 97.588-34.937l9.316-7.456 9.36 7.427c60.309 47.789 115.727 32.537 126.313 33.34v121.868z"/><path d="m218.749 271.194h48.062l5.947 17.827 20.493-47.827h-48.062l-5.947-17.827z"/></g></svg>