<?xml version="1.0"?>
<svg xmlns="http://www.w3.org/2000/svg" xmlns:xlink="http://www.w3.org/1999/xlink" xmlns:svgjs="http://svgjs.com/svgjs" version="1.1" width="512" height="512" x="0" y="0" viewBox="0 0 504.734 504.735" style="enable-background:new 0 0 512 512" xml:space="preserve" class=""><g>
<g xmlns="http://www.w3.org/2000/svg">
	<g>
		<path d="M482.743,160.8l-65.192,30.868c26.101,56.399,18.078,124.667-24.289,173.694l-35.515-35.516v123.576h123.576    l-36.782-36.782C508.969,345.471,521.634,243.999,482.743,160.8z" fill="#f77200" data-original="#000000" style="" class=""/>
		<path d="M343.938,482.722l-30.896-65.164c-56.375,26.125-124.671,18.078-173.693-24.288l35.515-35.516H51.288v123.576    l36.782-36.782C159.244,508.971,260.717,521.636,343.938,482.722z" fill="#f77200" data-original="#000000" style="" class=""/>
		<path d="M111.451,139.351l35.515,35.515V51.29H23.385l36.777,36.777c-64.394,71.203-77.06,172.675-38.169,255.875l65.168-30.896    C61.037,256.669,69.084,188.374,111.451,139.351z" fill="#f77200" data-original="#000000" style="" class=""/>
		<path d="M453.425,146.963V23.387l-36.777,36.777C345.445-4.229,243.973-16.895,160.774,21.996l30.892,65.164    c56.4-26.101,124.671-18.078,173.693,24.289l-35.515,35.515H453.425z" fill="#f77200" data-original="#000000" style="" class=""/>
		<circle cx="252.354" cy="252.356" r="98.728" fill="#f77200" data-original="#000000" style="" class=""/>
	</g>
</g>
<g xmlns="http://www.w3.org/2000/svg">
</g>
<g xmlns="http://www.w3.org/2000/svg">
</g>
<g xmlns="http://www.w3.org/2000/svg">
</g>
<g xmlns="http://www.w3.org/2000/svg">
</g>
<g xmlns="http://www.w3.org/2000/svg">
</g>
<g xmlns="http://www.w3.org/2000/svg">
</g>
<g xmlns="http://www.w3.org/2000/svg">
</g>
<g xmlns="http://www.w3.org/2000/svg">
</g>
<g xmlns="http://www.w3.org/2000/svg">
</g>
<g xmlns="http://www.w3.org/2000/svg">
</g>
<g xmlns="http://www.w3.org/2000/svg">
</g>
<g xmlns="http://www.w3.org/2000/svg">
</g>
<g xmlns="http://www.w3.org/2000/svg">
</g>
<g xmlns="http://www.w3.org/2000/svg">
</g>
<g xmlns="http://www.w3.org/2000/svg">
</g>
</g></svg>
